<?xml version="1.0" standalone="no"?>
<!DOCTYPE svg PUBLIC "-//W3C//DTD SVG 20010904//EN"
 "http://www.w3.org/TR/2001/REC-SVG-20010904/DTD/svg10.dtd">
<svg className="text-red-500" version="1.0" xmlns="http://www.w3.org/2000/svg"
 width="656.000000pt" height="656.000000pt" viewBox="0 0 656.000000 656.000000"
 preserveAspectRatio="xMidYMid meet">

<g transform="translate(0.000000,656.000000) scale(0.100000,-0.100000)"
fill="#ffff" stroke="none">
<path d="M3287 5126 c-64 -23 -106 -66 -145 -146 -24 -49 -27 -66 -27 -160 0
-92 3 -112 26 -160 47 -101 119 -154 209 -154 89 0 162 54 209 154 23 48 26
68 26 160 0 92 -3 112 -26 160 -58 124 -170 184 -272 146z"/>
<path d="M1600 4070 l0 -640 145 0 145 0 0 257 c0 295 9 350 67 409 41 42 70
54 134 54 42 0 55 -5 85 -33 49 -45 53 -73 53 -409 l1 -278 140 0 140 0 0 328
c0 353 -5 392 -54 477 -52 87 -130 127 -256 127 -73 0 -94 -4 -150 -29 -36
-16 -84 -48 -107 -71 -23 -23 -45 -42 -48 -42 -3 0 -5 110 -5 245 l0 245 -145
0 -144 0 -1 -640z"/>
<path d="M340 4040 l0 -610 150 0 150 0 0 240 c0 132 3 240 8 240 4 0 115
-108 247 -240 l240 -240 190 0 190 0 -318 318 c-174 174 -317 320 -317 324 0
4 129 136 288 293 l287 284 -176 1 -176 0 -52 -54 c-28 -30 -51 -52 -51 -49 0
3 -7 0 -15 -7 -8 -7 -12 -16 -9 -21 3 -5 0 -9 -5 -9 -19 0 -301 -282 -294
-294 3 -6 3 -8 -2 -4 -4 4 -14 3 -22 -3 -11 -10 -13 27 -13 215 l0 226 -150 0
-150 0 0 -610z"/>
<path d="M3940 4480 l0 -130 -70 0 -70 0 0 -105 0 -105 70 0 70 0 0 -222 c0
-438 43 -487 428 -488 l132 0 0 104 0 104 -116 4 c-163 4 -154 -11 -154 274
l0 224 150 0 150 0 0 106 c0 94 -2 105 -17 103 -10 -1 -78 -1 -150 0 l-133 1
0 130 0 130 -145 0 -145 0 0 -130z"/>
<path d="M3080 4374 c-65 -5 -188 -24 -237 -36 l-43 -10 0 -109 0 -108 48 20
c103 45 302 64 395 38 58 -16 97 -56 104 -106 l6 -43 -99 0 c-293 0 -445 -54
-505 -178 -36 -72 -34 -187 4 -264 54 -109 148 -162 288 -161 110 1 167 23
245 95 l64 60 0 -66 0 -66 145 0 145 0 0 268 c-1 304 -9 390 -46 472 -42 94
-113 149 -227 175 -67 15 -215 25 -287 19z m270 -567 c0 -58 -36 -125 -88
-164 -38 -29 -51 -33 -103 -33 -33 0 -73 7 -88 14 -87 46 -80 171 13 212 20 8
73 13 149 14 l117 0 0 -43z"/>
<path d="M5782 4370 c-76 -8 -172 -24 -214 -36 -16 -5 -18 -19 -18 -114 l0
-109 43 19 c108 48 304 67 399 38 61 -18 98 -58 98 -105 l0 -40 -157 -6 c-174
-7 -261 -24 -336 -65 -87 -47 -127 -124 -127 -244 0 -197 163 -322 376 -288
86 14 138 41 197 102 52 54 53 53 48 -39 l-3 -43 146 0 146 0 0 294 c0 310 -6
368 -44 452 -57 123 -165 176 -383 188 -48 2 -125 1 -171 -4z m309 -570 c-4
-58 -23 -103 -55 -131 -14 -12 -23 -26 -20 -31 3 -5 2 -7 -3 -6 -4 1 -25 -4
-47 -11 -61 -21 -140 -10 -176 24 -58 56 -45 146 27 184 33 18 54 20 158 18
l120 -2 -4 -45z"/>
<path d="M5240 4360 c-81 -14 -128 -40 -185 -102 l-55 -59 0 75 0 76 -145 0
-145 0 0 -460 0 -460 145 0 145 0 0 248 c0 272 6 314 56 379 42 55 100 76 193
70 42 -3 88 -8 104 -12 l27 -7 0 125 c0 105 -3 126 -16 131 -20 7 -65 6 -124
-4z"/>
<path d="M1590 2765 l0 -405 260 0 260 0 0 45 0 45 -205 0 -205 0 0 150 0 150
190 0 190 0 0 45 0 45 -190 0 -190 0 0 120 0 120 200 0 200 0 0 45 0 45 -255
0 -255 0 0 -405z"/>
<path d="M4320 3050 l0 -80 -35 0 c-34 0 -35 -1 -35 -40 0 -39 1 -40 35 -40
l35 0 0 -192 c1 -155 4 -203 18 -242 24 -69 65 -89 189 -94 l93 -4 0 40 0 39
-81 5 c-118 7 -113 -2 -117 243 l-3 205 100 0 101 0 0 40 0 40 -100 0 -100 0
0 80 0 80 -50 0 -50 0 0 -80z"/>
<path d="M3838 2968 c-21 -5 -58 -28 -83 -50 l-45 -40 0 46 0 46 -50 0 -50 0
0 -305 0 -305 49 0 50 0 3 208 c3 187 5 210 24 242 60 103 209 118 261 25 22
-38 23 -50 23 -257 l0 -218 50 0 50 0 0 213 c0 163 -4 226 -15 265 -34 113
-139 164 -267 130z"/>
<path d="M3071 2953 c-206 -73 -244 -424 -60 -556 82 -59 235 -71 361 -30 52
18 53 19 56 61 2 23 0 42 -3 42 -3 0 -34 -10 -68 -21 -41 -15 -88 -22 -142
-23 -70 -1 -86 2 -127 26 -51 31 -88 91 -88 146 l0 32 226 0 227 0 -6 78 c-11
171 -103 262 -262 261 -38 0 -90 -8 -114 -16z m199 -85 c47 -32 71 -68 77
-116 l6 -42 -177 0 c-167 0 -176 1 -176 19 0 53 50 122 105 147 49 22 127 18
165 -8z"/>
<path d="M4848 2960 c-85 -25 -128 -82 -128 -167 0 -91 50 -137 186 -168 134
-30 164 -49 164 -106 0 -54 -31 -81 -106 -94 -49 -8 -147 9 -209 35 l-45 19 0
-49 0 -49 58 -18 c38 -12 91 -17 157 -17 89 -1 106 2 151 26 74 39 97 81 92
163 -6 101 -39 127 -218 171 -103 26 -140 52 -140 100 0 36 44 72 97 80 58 9
149 -1 196 -21 l38 -16 -3 48 c-3 48 -3 48 -48 60 -52 13 -202 15 -242 3z"/>
<path d="M2212 2948 c3 -7 54 -142 113 -300 l108 -288 67 0 67 0 108 288 c59
158 110 293 113 300 3 10 -8 12 -48 10 l-53 -3 -90 -242 c-50 -134 -93 -243
-97 -243 -4 0 -47 109 -97 243 l-90 242 -53 3 c-40 2 -51 0 -48 -10z"/>
</g>
</svg>
